<?xml version="1.0" encoding="UTF-8"?>
<svg id="Layer_2" data-name="Layer 2" xmlns="http://www.w3.org/2000/svg" viewBox="0 0 212.19 207.2">
  <defs>
    <style>
      .cls-1 {
        fill: none;
        stroke: #00a1c5;
        stroke-linecap: round;
        stroke-miterlimit: 10;
        stroke-width: 8px;
      }
    </style>
  </defs>
  <g id="Illustrative_symbols" data-name="Illustrative symbols">
    <polygon class="cls-1" points="106.12 4.56 62.12 28.56 62.12 80.56 106.12 104.56 150.12 80.56 150.12 28.56 106.12 4.56"/>
    <polyline class="cls-1" points="62.12 28.56 106.12 52.56 150.12 28.56 106.12 52.56 106.12 104.56"/>
    <polygon class="cls-1" points="48 102.65 4 126.65 4 178.65 48 202.65 92 178.65 92 126.65 48 102.65"/>
    <polyline class="cls-1" points="4 126.65 48 150.65 92 126.65 48 150.65 48 202.65"/>
    <polygon class="cls-1" points="164.19 102.65 120.19 126.65 120.19 178.65 164.19 202.65 208.19 178.65 208.19 126.65 164.19 102.65"/>
    <polyline class="cls-1" points="120.19 126.65 164.19 150.65 208.19 126.65 164.19 150.65 164.19 202.65"/>
    <line class="cls-1" x1="91.98" y1="152.65" x2="120.18" y2="152.65"/>
    <line class="cls-1" x1="128.86" y1="93.63" x2="146.89" y2="111.66"/>
    <line class="cls-1" x1="84.02" y1="93.63" x2="65.99" y2="111.66"/>
  </g>
</svg>